<svg width="512" height="512" viewBox="0 0 512 512" fill="none" xmlns="http://www.w3.org/2000/svg">
<path d="M470.598 278.625L310.598 438.625C304.398 444.925 296.198 448.025 287.998 448.025C279.798 448.025 271.618 444.9 265.378 438.65C252.878 426.15 252.878 405.9 265.378 393.4L370.798 288.025H63.9984C46.3284 288.025 32 273.725 32 256.025C32 238.325 46.3284 224.025 63.9984 224.025H370.798L265.398 118.625C252.898 106.125 252.898 85.875 265.398 73.375C277.898 60.875 298.148 60.875 310.648 73.375L470.648 233.375C483.098 245.925 483.098 266.125 470.598 278.625Z" fill="black"/>
</svg>
