<svg width="512" height="512" viewBox="0 0 512 512" fill="none" xmlns="http://www.w3.org/2000/svg">
<path d="M435.75 380.826C450.671 395.747 450.671 419.919 435.75 434.839C428.349 442.3 418.561 446 408.773 446C398.985 446 389.221 442.27 381.773 434.809L255.985 309.088L130.209 434.78C122.749 442.3 112.973 446 103.197 446C93.421 446 83.6569 442.3 76.1905 434.78C61.2698 419.859 61.2698 395.687 76.1905 380.767L202.002 254.955L76.1905 129.204C61.2698 114.283 61.2698 90.1112 76.1905 75.1905C91.1112 60.2698 115.283 60.2698 130.204 75.1905L255.985 201.062L381.797 75.2502C396.717 60.3295 420.889 60.3295 435.809 75.2502C450.73 90.1709 450.73 114.342 435.809 129.263L309.998 255.075L435.75 380.826Z" fill="black"/>
</svg>
